<mxfile host="app.diagrams.net" modified="2021-10-04T05:12:39.204Z" agent="5.0 (Windows NT 10.0; Win64; x64) AppleWebKit/537.36 (KHTML, like Gecko) Chrome/94.0.4606.61 Safari/537.36" etag="45Iqbo8kr8uuzhD5RQKf" version="15.4.1" type="github" pages="2">
  <diagram id="PhgHmQy29HleR9232-ch" name="Page-1">
    <mxGraphModel dx="1422" dy="794" grid="1" gridSize="10" guides="1" tooltips="1" connect="1" arrows="1" fold="1" page="1" pageScale="1" pageWidth="3300" pageHeight="4681" math="0" shadow="0">
      <root>
        <mxCell id="0" />
        <mxCell id="1" parent="0" />
        <mxCell id="lu6jLlneWJ36-ySOmMYC-1" value="c_member" style="shape=table;startSize=30;container=1;collapsible=0;childLayout=tableLayout;fixedRows=1;rowLines=0;fontStyle=1;align=center;pointerEvents=1;" parent="1" vertex="1">
          <mxGeometry x="80" y="70" width="249" height="270" as="geometry" />
        </mxCell>
        <mxCell id="lu6jLlneWJ36-ySOmMYC-2" value="" style="shape=partialRectangle;html=1;whiteSpace=wrap;collapsible=0;dropTarget=0;pointerEvents=1;fillColor=none;top=0;left=0;bottom=1;right=0;points=[[0,0.5],[1,0.5]];portConstraint=eastwest;" parent="lu6jLlneWJ36-ySOmMYC-1" vertex="1">
          <mxGeometry y="30" width="249" height="30" as="geometry" />
        </mxCell>
        <mxCell id="lu6jLlneWJ36-ySOmMYC-3" value="1" style="shape=partialRectangle;html=1;whiteSpace=wrap;connectable=0;fillColor=none;top=0;left=0;bottom=0;right=0;overflow=hidden;pointerEvents=1;" parent="lu6jLlneWJ36-ySOmMYC-2" vertex="1">
          <mxGeometry width="31" height="30" as="geometry">
            <mxRectangle width="31" height="30" as="alternateBounds" />
          </mxGeometry>
        </mxCell>
        <mxCell id="lu6jLlneWJ36-ySOmMYC-4" value="cm_no" style="shape=partialRectangle;html=1;whiteSpace=wrap;connectable=0;fillColor=none;top=0;left=0;bottom=0;right=0;align=left;spacingLeft=6;overflow=hidden;pointerEvents=1;" parent="lu6jLlneWJ36-ySOmMYC-2" vertex="1">
          <mxGeometry x="31" width="109" height="30" as="geometry">
            <mxRectangle width="109" height="30" as="alternateBounds" />
          </mxGeometry>
        </mxCell>
        <mxCell id="0epXOiF0-PzlHcYDLfbG-31" value="회원번호" style="shape=partialRectangle;html=1;whiteSpace=wrap;connectable=0;fillColor=none;top=0;left=0;bottom=0;right=0;align=left;spacingLeft=6;overflow=hidden;pointerEvents=1;" parent="lu6jLlneWJ36-ySOmMYC-2" vertex="1">
          <mxGeometry x="140" width="109" height="30" as="geometry">
            <mxRectangle width="109" height="30" as="alternateBounds" />
          </mxGeometry>
        </mxCell>
        <mxCell id="lu6jLlneWJ36-ySOmMYC-5" value="" style="shape=partialRectangle;html=1;whiteSpace=wrap;collapsible=0;dropTarget=0;pointerEvents=1;fillColor=none;top=0;left=0;bottom=0;right=0;points=[[0,0.5],[1,0.5]];portConstraint=eastwest;" parent="lu6jLlneWJ36-ySOmMYC-1" vertex="1">
          <mxGeometry y="60" width="249" height="20" as="geometry" />
        </mxCell>
        <mxCell id="lu6jLlneWJ36-ySOmMYC-6" value="2" style="shape=partialRectangle;html=1;whiteSpace=wrap;connectable=0;fillColor=none;top=0;left=0;bottom=0;right=0;overflow=hidden;pointerEvents=1;" parent="lu6jLlneWJ36-ySOmMYC-5" vertex="1">
          <mxGeometry width="31" height="20" as="geometry">
            <mxRectangle width="31" height="20" as="alternateBounds" />
          </mxGeometry>
        </mxCell>
        <mxCell id="lu6jLlneWJ36-ySOmMYC-7" value="cm_id" style="shape=partialRectangle;html=1;whiteSpace=wrap;connectable=0;fillColor=none;top=0;left=0;bottom=0;right=0;align=left;spacingLeft=6;overflow=hidden;pointerEvents=1;" parent="lu6jLlneWJ36-ySOmMYC-5" vertex="1">
          <mxGeometry x="31" width="109" height="20" as="geometry">
            <mxRectangle width="109" height="20" as="alternateBounds" />
          </mxGeometry>
        </mxCell>
        <mxCell id="0epXOiF0-PzlHcYDLfbG-32" value="회원 아이디" style="shape=partialRectangle;html=1;whiteSpace=wrap;connectable=0;fillColor=none;top=0;left=0;bottom=0;right=0;align=left;spacingLeft=6;overflow=hidden;pointerEvents=1;" parent="lu6jLlneWJ36-ySOmMYC-5" vertex="1">
          <mxGeometry x="140" width="109" height="20" as="geometry">
            <mxRectangle width="109" height="20" as="alternateBounds" />
          </mxGeometry>
        </mxCell>
        <mxCell id="lu6jLlneWJ36-ySOmMYC-8" value="" style="shape=partialRectangle;html=1;whiteSpace=wrap;collapsible=0;dropTarget=0;pointerEvents=1;fillColor=none;top=0;left=0;bottom=0;right=0;points=[[0,0.5],[1,0.5]];portConstraint=eastwest;" parent="lu6jLlneWJ36-ySOmMYC-1" vertex="1">
          <mxGeometry y="80" width="249" height="20" as="geometry" />
        </mxCell>
        <mxCell id="lu6jLlneWJ36-ySOmMYC-9" value="3" style="shape=partialRectangle;html=1;whiteSpace=wrap;connectable=0;fillColor=none;top=0;left=0;bottom=0;right=0;overflow=hidden;pointerEvents=1;" parent="lu6jLlneWJ36-ySOmMYC-8" vertex="1">
          <mxGeometry width="31" height="20" as="geometry">
            <mxRectangle width="31" height="20" as="alternateBounds" />
          </mxGeometry>
        </mxCell>
        <mxCell id="lu6jLlneWJ36-ySOmMYC-10" value="cm_name" style="shape=partialRectangle;html=1;whiteSpace=wrap;connectable=0;fillColor=none;top=0;left=0;bottom=0;right=0;align=left;spacingLeft=6;overflow=hidden;pointerEvents=1;" parent="lu6jLlneWJ36-ySOmMYC-8" vertex="1">
          <mxGeometry x="31" width="109" height="20" as="geometry">
            <mxRectangle width="109" height="20" as="alternateBounds" />
          </mxGeometry>
        </mxCell>
        <mxCell id="0epXOiF0-PzlHcYDLfbG-33" style="shape=partialRectangle;html=1;whiteSpace=wrap;connectable=0;fillColor=none;top=0;left=0;bottom=0;right=0;align=left;spacingLeft=6;overflow=hidden;pointerEvents=1;" parent="lu6jLlneWJ36-ySOmMYC-8" vertex="1">
          <mxGeometry x="140" width="109" height="20" as="geometry">
            <mxRectangle width="109" height="20" as="alternateBounds" />
          </mxGeometry>
        </mxCell>
        <mxCell id="0epXOiF0-PzlHcYDLfbG-7" style="shape=partialRectangle;html=1;whiteSpace=wrap;collapsible=0;dropTarget=0;pointerEvents=1;fillColor=none;top=0;left=0;bottom=0;right=0;points=[[0,0.5],[1,0.5]];portConstraint=eastwest;" parent="lu6jLlneWJ36-ySOmMYC-1" vertex="1">
          <mxGeometry y="100" width="249" height="20" as="geometry" />
        </mxCell>
        <mxCell id="0epXOiF0-PzlHcYDLfbG-8" value="4" style="shape=partialRectangle;html=1;whiteSpace=wrap;connectable=0;fillColor=none;top=0;left=0;bottom=0;right=0;overflow=hidden;pointerEvents=1;" parent="0epXOiF0-PzlHcYDLfbG-7" vertex="1">
          <mxGeometry width="31" height="20" as="geometry">
            <mxRectangle width="31" height="20" as="alternateBounds" />
          </mxGeometry>
        </mxCell>
        <mxCell id="0epXOiF0-PzlHcYDLfbG-9" value="cm_nick" style="shape=partialRectangle;html=1;whiteSpace=wrap;connectable=0;fillColor=none;top=0;left=0;bottom=0;right=0;align=left;spacingLeft=6;overflow=hidden;pointerEvents=1;" parent="0epXOiF0-PzlHcYDLfbG-7" vertex="1">
          <mxGeometry x="31" width="109" height="20" as="geometry">
            <mxRectangle width="109" height="20" as="alternateBounds" />
          </mxGeometry>
        </mxCell>
        <mxCell id="0epXOiF0-PzlHcYDLfbG-34" style="shape=partialRectangle;html=1;whiteSpace=wrap;connectable=0;fillColor=none;top=0;left=0;bottom=0;right=0;align=left;spacingLeft=6;overflow=hidden;pointerEvents=1;" parent="0epXOiF0-PzlHcYDLfbG-7" vertex="1">
          <mxGeometry x="140" width="109" height="20" as="geometry">
            <mxRectangle width="109" height="20" as="alternateBounds" />
          </mxGeometry>
        </mxCell>
        <mxCell id="0epXOiF0-PzlHcYDLfbG-10" style="shape=partialRectangle;html=1;whiteSpace=wrap;collapsible=0;dropTarget=0;pointerEvents=1;fillColor=none;top=0;left=0;bottom=0;right=0;points=[[0,0.5],[1,0.5]];portConstraint=eastwest;" parent="lu6jLlneWJ36-ySOmMYC-1" vertex="1">
          <mxGeometry y="120" width="249" height="20" as="geometry" />
        </mxCell>
        <mxCell id="0epXOiF0-PzlHcYDLfbG-11" value="5" style="shape=partialRectangle;html=1;whiteSpace=wrap;connectable=0;fillColor=none;top=0;left=0;bottom=0;right=0;overflow=hidden;pointerEvents=1;" parent="0epXOiF0-PzlHcYDLfbG-10" vertex="1">
          <mxGeometry width="31" height="20" as="geometry">
            <mxRectangle width="31" height="20" as="alternateBounds" />
          </mxGeometry>
        </mxCell>
        <mxCell id="0epXOiF0-PzlHcYDLfbG-12" value="&lt;span&gt;cm_tell&lt;/span&gt;" style="shape=partialRectangle;html=1;whiteSpace=wrap;connectable=0;fillColor=none;top=0;left=0;bottom=0;right=0;align=left;spacingLeft=6;overflow=hidden;pointerEvents=1;" parent="0epXOiF0-PzlHcYDLfbG-10" vertex="1">
          <mxGeometry x="31" width="109" height="20" as="geometry">
            <mxRectangle width="109" height="20" as="alternateBounds" />
          </mxGeometry>
        </mxCell>
        <mxCell id="0epXOiF0-PzlHcYDLfbG-35" style="shape=partialRectangle;html=1;whiteSpace=wrap;connectable=0;fillColor=none;top=0;left=0;bottom=0;right=0;align=left;spacingLeft=6;overflow=hidden;pointerEvents=1;" parent="0epXOiF0-PzlHcYDLfbG-10" vertex="1">
          <mxGeometry x="140" width="109" height="20" as="geometry">
            <mxRectangle width="109" height="20" as="alternateBounds" />
          </mxGeometry>
        </mxCell>
        <mxCell id="0epXOiF0-PzlHcYDLfbG-13" style="shape=partialRectangle;html=1;whiteSpace=wrap;collapsible=0;dropTarget=0;pointerEvents=1;fillColor=none;top=0;left=0;bottom=0;right=0;points=[[0,0.5],[1,0.5]];portConstraint=eastwest;" parent="lu6jLlneWJ36-ySOmMYC-1" vertex="1">
          <mxGeometry y="140" width="249" height="20" as="geometry" />
        </mxCell>
        <mxCell id="0epXOiF0-PzlHcYDLfbG-14" value="6" style="shape=partialRectangle;html=1;whiteSpace=wrap;connectable=0;fillColor=none;top=0;left=0;bottom=0;right=0;overflow=hidden;pointerEvents=1;" parent="0epXOiF0-PzlHcYDLfbG-13" vertex="1">
          <mxGeometry width="31" height="20" as="geometry">
            <mxRectangle width="31" height="20" as="alternateBounds" />
          </mxGeometry>
        </mxCell>
        <mxCell id="0epXOiF0-PzlHcYDLfbG-15" value="&lt;span&gt;cm_email&lt;/span&gt;" style="shape=partialRectangle;html=1;whiteSpace=wrap;connectable=0;fillColor=none;top=0;left=0;bottom=0;right=0;align=left;spacingLeft=6;overflow=hidden;pointerEvents=1;" parent="0epXOiF0-PzlHcYDLfbG-13" vertex="1">
          <mxGeometry x="31" width="109" height="20" as="geometry">
            <mxRectangle width="109" height="20" as="alternateBounds" />
          </mxGeometry>
        </mxCell>
        <mxCell id="0epXOiF0-PzlHcYDLfbG-36" style="shape=partialRectangle;html=1;whiteSpace=wrap;connectable=0;fillColor=none;top=0;left=0;bottom=0;right=0;align=left;spacingLeft=6;overflow=hidden;pointerEvents=1;" parent="0epXOiF0-PzlHcYDLfbG-13" vertex="1">
          <mxGeometry x="140" width="109" height="20" as="geometry">
            <mxRectangle width="109" height="20" as="alternateBounds" />
          </mxGeometry>
        </mxCell>
        <mxCell id="0epXOiF0-PzlHcYDLfbG-16" style="shape=partialRectangle;html=1;whiteSpace=wrap;collapsible=0;dropTarget=0;pointerEvents=1;fillColor=none;top=0;left=0;bottom=0;right=0;points=[[0,0.5],[1,0.5]];portConstraint=eastwest;" parent="lu6jLlneWJ36-ySOmMYC-1" vertex="1">
          <mxGeometry y="160" width="249" height="20" as="geometry" />
        </mxCell>
        <mxCell id="0epXOiF0-PzlHcYDLfbG-17" value="7" style="shape=partialRectangle;html=1;whiteSpace=wrap;connectable=0;fillColor=none;top=0;left=0;bottom=0;right=0;overflow=hidden;pointerEvents=1;" parent="0epXOiF0-PzlHcYDLfbG-16" vertex="1">
          <mxGeometry width="31" height="20" as="geometry">
            <mxRectangle width="31" height="20" as="alternateBounds" />
          </mxGeometry>
        </mxCell>
        <mxCell id="0epXOiF0-PzlHcYDLfbG-18" value="&lt;span&gt;cm_vec_yn&lt;/span&gt;" style="shape=partialRectangle;html=1;whiteSpace=wrap;connectable=0;fillColor=none;top=0;left=0;bottom=0;right=0;align=left;spacingLeft=6;overflow=hidden;pointerEvents=1;" parent="0epXOiF0-PzlHcYDLfbG-16" vertex="1">
          <mxGeometry x="31" width="109" height="20" as="geometry">
            <mxRectangle width="109" height="20" as="alternateBounds" />
          </mxGeometry>
        </mxCell>
        <mxCell id="0epXOiF0-PzlHcYDLfbG-37" style="shape=partialRectangle;html=1;whiteSpace=wrap;connectable=0;fillColor=none;top=0;left=0;bottom=0;right=0;align=left;spacingLeft=6;overflow=hidden;pointerEvents=1;" parent="0epXOiF0-PzlHcYDLfbG-16" vertex="1">
          <mxGeometry x="140" width="109" height="20" as="geometry">
            <mxRectangle width="109" height="20" as="alternateBounds" />
          </mxGeometry>
        </mxCell>
        <mxCell id="0epXOiF0-PzlHcYDLfbG-19" style="shape=partialRectangle;html=1;whiteSpace=wrap;collapsible=0;dropTarget=0;pointerEvents=1;fillColor=none;top=0;left=0;bottom=0;right=0;points=[[0,0.5],[1,0.5]];portConstraint=eastwest;" parent="lu6jLlneWJ36-ySOmMYC-1" vertex="1">
          <mxGeometry y="180" width="249" height="20" as="geometry" />
        </mxCell>
        <mxCell id="0epXOiF0-PzlHcYDLfbG-20" value="8" style="shape=partialRectangle;html=1;whiteSpace=wrap;connectable=0;fillColor=none;top=0;left=0;bottom=0;right=0;overflow=hidden;pointerEvents=1;" parent="0epXOiF0-PzlHcYDLfbG-19" vertex="1">
          <mxGeometry width="31" height="20" as="geometry">
            <mxRectangle width="31" height="20" as="alternateBounds" />
          </mxGeometry>
        </mxCell>
        <mxCell id="0epXOiF0-PzlHcYDLfbG-21" value="&lt;span&gt;cm_address&lt;/span&gt;" style="shape=partialRectangle;html=1;whiteSpace=wrap;connectable=0;fillColor=none;top=0;left=0;bottom=0;right=0;align=left;spacingLeft=6;overflow=hidden;pointerEvents=1;" parent="0epXOiF0-PzlHcYDLfbG-19" vertex="1">
          <mxGeometry x="31" width="109" height="20" as="geometry">
            <mxRectangle width="109" height="20" as="alternateBounds" />
          </mxGeometry>
        </mxCell>
        <mxCell id="0epXOiF0-PzlHcYDLfbG-38" style="shape=partialRectangle;html=1;whiteSpace=wrap;connectable=0;fillColor=none;top=0;left=0;bottom=0;right=0;align=left;spacingLeft=6;overflow=hidden;pointerEvents=1;" parent="0epXOiF0-PzlHcYDLfbG-19" vertex="1">
          <mxGeometry x="140" width="109" height="20" as="geometry">
            <mxRectangle width="109" height="20" as="alternateBounds" />
          </mxGeometry>
        </mxCell>
        <mxCell id="0epXOiF0-PzlHcYDLfbG-22" style="shape=partialRectangle;html=1;whiteSpace=wrap;collapsible=0;dropTarget=0;pointerEvents=1;fillColor=none;top=0;left=0;bottom=0;right=0;points=[[0,0.5],[1,0.5]];portConstraint=eastwest;" parent="lu6jLlneWJ36-ySOmMYC-1" vertex="1">
          <mxGeometry y="200" width="249" height="30" as="geometry" />
        </mxCell>
        <mxCell id="0epXOiF0-PzlHcYDLfbG-23" value="9" style="shape=partialRectangle;html=1;whiteSpace=wrap;connectable=0;fillColor=none;top=0;left=0;bottom=0;right=0;overflow=hidden;pointerEvents=1;" parent="0epXOiF0-PzlHcYDLfbG-22" vertex="1">
          <mxGeometry width="31" height="30" as="geometry">
            <mxRectangle width="31" height="30" as="alternateBounds" />
          </mxGeometry>
        </mxCell>
        <mxCell id="0epXOiF0-PzlHcYDLfbG-24" value="&lt;span&gt;cm_date&lt;/span&gt;" style="shape=partialRectangle;html=1;whiteSpace=wrap;connectable=0;fillColor=none;top=0;left=0;bottom=0;right=0;align=left;spacingLeft=6;overflow=hidden;pointerEvents=1;" parent="0epXOiF0-PzlHcYDLfbG-22" vertex="1">
          <mxGeometry x="31" width="109" height="30" as="geometry">
            <mxRectangle width="109" height="30" as="alternateBounds" />
          </mxGeometry>
        </mxCell>
        <mxCell id="0epXOiF0-PzlHcYDLfbG-39" style="shape=partialRectangle;html=1;whiteSpace=wrap;connectable=0;fillColor=none;top=0;left=0;bottom=0;right=0;align=left;spacingLeft=6;overflow=hidden;pointerEvents=1;" parent="0epXOiF0-PzlHcYDLfbG-22" vertex="1">
          <mxGeometry x="140" width="109" height="30" as="geometry">
            <mxRectangle width="109" height="30" as="alternateBounds" />
          </mxGeometry>
        </mxCell>
        <mxCell id="0epXOiF0-PzlHcYDLfbG-25" style="shape=partialRectangle;html=1;whiteSpace=wrap;collapsible=0;dropTarget=0;pointerEvents=1;fillColor=none;top=0;left=0;bottom=0;right=0;points=[[0,0.5],[1,0.5]];portConstraint=eastwest;" parent="lu6jLlneWJ36-ySOmMYC-1" vertex="1">
          <mxGeometry y="230" width="249" height="20" as="geometry" />
        </mxCell>
        <mxCell id="0epXOiF0-PzlHcYDLfbG-26" value="10" style="shape=partialRectangle;html=1;whiteSpace=wrap;connectable=0;fillColor=none;top=0;left=0;bottom=0;right=0;overflow=hidden;pointerEvents=1;" parent="0epXOiF0-PzlHcYDLfbG-25" vertex="1">
          <mxGeometry width="31" height="20" as="geometry">
            <mxRectangle width="31" height="20" as="alternateBounds" />
          </mxGeometry>
        </mxCell>
        <mxCell id="0epXOiF0-PzlHcYDLfbG-27" value="&lt;span&gt;cm_del&lt;/span&gt;" style="shape=partialRectangle;html=1;whiteSpace=wrap;connectable=0;fillColor=none;top=0;left=0;bottom=0;right=0;align=left;spacingLeft=6;overflow=hidden;pointerEvents=1;" parent="0epXOiF0-PzlHcYDLfbG-25" vertex="1">
          <mxGeometry x="31" width="109" height="20" as="geometry">
            <mxRectangle width="109" height="20" as="alternateBounds" />
          </mxGeometry>
        </mxCell>
        <mxCell id="0epXOiF0-PzlHcYDLfbG-40" style="shape=partialRectangle;html=1;whiteSpace=wrap;connectable=0;fillColor=none;top=0;left=0;bottom=0;right=0;align=left;spacingLeft=6;overflow=hidden;pointerEvents=1;" parent="0epXOiF0-PzlHcYDLfbG-25" vertex="1">
          <mxGeometry x="140" width="109" height="20" as="geometry">
            <mxRectangle width="109" height="20" as="alternateBounds" />
          </mxGeometry>
        </mxCell>
        <mxCell id="0epXOiF0-PzlHcYDLfbG-28" style="shape=partialRectangle;html=1;whiteSpace=wrap;collapsible=0;dropTarget=0;pointerEvents=1;fillColor=none;top=0;left=0;bottom=0;right=0;points=[[0,0.5],[1,0.5]];portConstraint=eastwest;" parent="lu6jLlneWJ36-ySOmMYC-1" vertex="1">
          <mxGeometry y="250" width="249" height="20" as="geometry" />
        </mxCell>
        <mxCell id="0epXOiF0-PzlHcYDLfbG-29" value="11" style="shape=partialRectangle;html=1;whiteSpace=wrap;connectable=0;fillColor=none;top=0;left=0;bottom=0;right=0;overflow=hidden;pointerEvents=1;" parent="0epXOiF0-PzlHcYDLfbG-28" vertex="1">
          <mxGeometry width="31" height="20" as="geometry">
            <mxRectangle width="31" height="20" as="alternateBounds" />
          </mxGeometry>
        </mxCell>
        <mxCell id="0epXOiF0-PzlHcYDLfbG-30" value="&lt;span&gt;cm_profile_img&lt;/span&gt;" style="shape=partialRectangle;html=1;whiteSpace=wrap;connectable=0;fillColor=none;top=0;left=0;bottom=0;right=0;align=left;spacingLeft=6;overflow=hidden;pointerEvents=1;" parent="0epXOiF0-PzlHcYDLfbG-28" vertex="1">
          <mxGeometry x="31" width="109" height="20" as="geometry">
            <mxRectangle width="109" height="20" as="alternateBounds" />
          </mxGeometry>
        </mxCell>
        <mxCell id="0epXOiF0-PzlHcYDLfbG-41" style="shape=partialRectangle;html=1;whiteSpace=wrap;connectable=0;fillColor=none;top=0;left=0;bottom=0;right=0;align=left;spacingLeft=6;overflow=hidden;pointerEvents=1;" parent="0epXOiF0-PzlHcYDLfbG-28" vertex="1">
          <mxGeometry x="140" width="109" height="20" as="geometry">
            <mxRectangle width="109" height="20" as="alternateBounds" />
          </mxGeometry>
        </mxCell>
        <mxCell id="lu6jLlneWJ36-ySOmMYC-29" value="Table" style="shape=table;startSize=30;container=1;collapsible=0;childLayout=tableLayout;fixedRows=1;rowLines=0;fontStyle=1;align=center;pointerEvents=1;" parent="1" vertex="1">
          <mxGeometry x="290" y="420" width="180" height="150" as="geometry" />
        </mxCell>
        <mxCell id="lu6jLlneWJ36-ySOmMYC-30" value="" style="shape=partialRectangle;html=1;whiteSpace=wrap;collapsible=0;dropTarget=0;pointerEvents=1;fillColor=none;top=0;left=0;bottom=1;right=0;points=[[0,0.5],[1,0.5]];portConstraint=eastwest;" parent="lu6jLlneWJ36-ySOmMYC-29" vertex="1">
          <mxGeometry y="30" width="180" height="30" as="geometry" />
        </mxCell>
        <mxCell id="lu6jLlneWJ36-ySOmMYC-31" value="1" style="shape=partialRectangle;html=1;whiteSpace=wrap;connectable=0;fillColor=none;top=0;left=0;bottom=0;right=0;overflow=hidden;pointerEvents=1;" parent="lu6jLlneWJ36-ySOmMYC-30" vertex="1">
          <mxGeometry width="40" height="30" as="geometry">
            <mxRectangle width="40" height="30" as="alternateBounds" />
          </mxGeometry>
        </mxCell>
        <mxCell id="lu6jLlneWJ36-ySOmMYC-32" value="Value 1" style="shape=partialRectangle;html=1;whiteSpace=wrap;connectable=0;fillColor=none;top=0;left=0;bottom=0;right=0;align=left;spacingLeft=6;overflow=hidden;pointerEvents=1;" parent="lu6jLlneWJ36-ySOmMYC-30" vertex="1">
          <mxGeometry x="40" width="140" height="30" as="geometry">
            <mxRectangle width="140" height="30" as="alternateBounds" />
          </mxGeometry>
        </mxCell>
        <mxCell id="lu6jLlneWJ36-ySOmMYC-33" value="" style="shape=partialRectangle;html=1;whiteSpace=wrap;collapsible=0;dropTarget=0;pointerEvents=1;fillColor=none;top=0;left=0;bottom=0;right=0;points=[[0,0.5],[1,0.5]];portConstraint=eastwest;" parent="lu6jLlneWJ36-ySOmMYC-29" vertex="1">
          <mxGeometry y="60" width="180" height="30" as="geometry" />
        </mxCell>
        <mxCell id="lu6jLlneWJ36-ySOmMYC-34" value="2" style="shape=partialRectangle;html=1;whiteSpace=wrap;connectable=0;fillColor=none;top=0;left=0;bottom=0;right=0;overflow=hidden;pointerEvents=1;" parent="lu6jLlneWJ36-ySOmMYC-33" vertex="1">
          <mxGeometry width="40" height="30" as="geometry">
            <mxRectangle width="40" height="30" as="alternateBounds" />
          </mxGeometry>
        </mxCell>
        <mxCell id="lu6jLlneWJ36-ySOmMYC-35" value="Value 2" style="shape=partialRectangle;html=1;whiteSpace=wrap;connectable=0;fillColor=none;top=0;left=0;bottom=0;right=0;align=left;spacingLeft=6;overflow=hidden;pointerEvents=1;" parent="lu6jLlneWJ36-ySOmMYC-33" vertex="1">
          <mxGeometry x="40" width="140" height="30" as="geometry">
            <mxRectangle width="140" height="30" as="alternateBounds" />
          </mxGeometry>
        </mxCell>
        <mxCell id="lu6jLlneWJ36-ySOmMYC-36" value="" style="shape=partialRectangle;html=1;whiteSpace=wrap;collapsible=0;dropTarget=0;pointerEvents=1;fillColor=none;top=0;left=0;bottom=0;right=0;points=[[0,0.5],[1,0.5]];portConstraint=eastwest;" parent="lu6jLlneWJ36-ySOmMYC-29" vertex="1">
          <mxGeometry y="90" width="180" height="30" as="geometry" />
        </mxCell>
        <mxCell id="lu6jLlneWJ36-ySOmMYC-37" value="3" style="shape=partialRectangle;html=1;whiteSpace=wrap;connectable=0;fillColor=none;top=0;left=0;bottom=0;right=0;overflow=hidden;pointerEvents=1;" parent="lu6jLlneWJ36-ySOmMYC-36" vertex="1">
          <mxGeometry width="40" height="30" as="geometry">
            <mxRectangle width="40" height="30" as="alternateBounds" />
          </mxGeometry>
        </mxCell>
        <mxCell id="lu6jLlneWJ36-ySOmMYC-38" value="Value 3" style="shape=partialRectangle;html=1;whiteSpace=wrap;connectable=0;fillColor=none;top=0;left=0;bottom=0;right=0;align=left;spacingLeft=6;overflow=hidden;pointerEvents=1;" parent="lu6jLlneWJ36-ySOmMYC-36" vertex="1">
          <mxGeometry x="40" width="140" height="30" as="geometry">
            <mxRectangle width="140" height="30" as="alternateBounds" />
          </mxGeometry>
        </mxCell>
      </root>
    </mxGraphModel>
  </diagram>
  <diagram id="5U0fj_SB5Ajm2IEnx34m" name="Page-2">
    <mxGraphModel dx="1422" dy="794" grid="1" gridSize="10" guides="1" tooltips="1" connect="1" arrows="1" fold="1" page="1" pageScale="1" pageWidth="3300" pageHeight="4681" math="0" shadow="0">
      <root>
        <mxCell id="JpKBzK3Up9JT3DbAp5J6-0" />
        <mxCell id="JpKBzK3Up9JT3DbAp5J6-1" parent="JpKBzK3Up9JT3DbAp5J6-0" />
      </root>
    </mxGraphModel>
  </diagram>
</mxfile>
